<svg width="32" height="32" viewBox="0 0 32 32" fill="none" xmlns="http://www.w3.org/2000/svg">
<path d="M16 2.66667C10.84 2.66667 6.66663 6.84001 6.66663 12C6.66663 19 16 29.3333 16 29.3333C16 29.3333 25.3333 19 25.3333 12C25.3333 6.84001 21.16 2.66667 16 2.66667ZM9.33329 12C9.33329 8.32001 12.32 5.33334 16 5.33334C19.68 5.33334 22.6666 8.32001 22.6666 12C22.6666 15.84 18.8266 21.5867 16 25.1733C13.2266 21.6133 9.33329 15.8 9.33329 12Z" fill="#FFD600"/>
<path d="M16 15.3333C17.8409 15.3333 19.3333 13.841 19.3333 12C19.3333 10.1591 17.8409 8.66667 16 8.66667C14.159 8.66667 12.6666 10.1591 12.6666 12C12.6666 13.841 14.159 15.3333 16 15.3333Z" fill="#FFD600"/>
</svg>
