<svg width="56" height="56" viewBox="0 0 56 56" fill="none" xmlns="http://www.w3.org/2000/svg">
<path d="M28 4.66667C15.12 4.66667 4.66669 15.12 4.66669 28C4.66669 40.88 15.12 51.3333 28 51.3333C40.88 51.3333 51.3334 40.88 51.3334 28C51.3334 15.12 40.88 4.66667 28 4.66667ZM28 11.6667C31.8734 11.6667 35 14.7933 35 18.6667C35 22.54 31.8734 25.6667 28 25.6667C24.1267 25.6667 21 22.54 21 18.6667C21 14.7933 24.1267 11.6667 28 11.6667ZM28 44.8C22.1667 44.8 17.01 41.8133 14 37.2867C14.07 32.6433 23.3334 30.1 28 30.1C32.6434 30.1 41.93 32.6433 42 37.2867C38.99 41.8133 33.8334 44.8 28 44.8Z" fill="#BDBDBD"/>
</svg>
