<svg width="28" height="14" viewBox="0 0 28 14" fill="none" xmlns="http://www.w3.org/2000/svg">
<path d="M20.6666 0.333328H15.3333V2.99999H20.6666C22.8666 2.99999 24.6666 4.79999 24.6666 6.99999C24.6666 9.19999 22.8666 11 20.6666 11H15.3333V13.6667H20.6666C24.3466 13.6667 27.3333 10.68 27.3333 6.99999C27.3333 3.31999 24.3466 0.333328 20.6666 0.333328ZM12.6666 11H7.33329C5.13329 11 3.33329 9.19999 3.33329 6.99999C3.33329 4.79999 5.13329 2.99999 7.33329 2.99999H12.6666V0.333328H7.33329C3.65329 0.333328 0.666626 3.31999 0.666626 6.99999C0.666626 10.68 3.65329 13.6667 7.33329 13.6667H12.6666V11ZM8.66663 5.66666H19.3333V8.33333H8.66663V5.66666Z" fill="#FFD600"/>
</svg>
